<svg width="337" height="97" viewBox="0 0 337 97" fill="none" xmlns="http://www.w3.org/2000/svg">
<g filter="url(#filter0_i_302_2)">
<rect width="337" height="97" rx="48.5" fill="#4C43CD"/>
<rect width="337" height="97" rx="48.5" fill="url(#paint0_radial_302_2)" fill-opacity="0.7"/>
<rect width="337" height="97" rx="48.5" fill="url(#paint1_radial_302_2)"/>
<g filter="url(#filter1_d_302_2)">
<path d="M54.988 63V36.18H58.228L68.272 50.472H66.616L76.588 36.18H79.828V63H76.264V40.644L77.524 41.04L67.552 55.08H67.264L57.4 41.04L58.516 40.644V63H54.988ZM91.0769 63.432C89.8049 63.432 88.6769 63.204 87.6929 62.748C86.7329 62.268 85.9769 61.62 85.4249 60.804C84.8729 59.964 84.5969 59.004 84.5969 57.924C84.5969 56.892 84.8129 55.968 85.2449 55.152C85.7009 54.312 86.3969 53.604 87.3329 53.028C88.2929 52.452 89.4929 52.044 90.9329 51.804L98.1329 50.616V53.424L91.6889 54.504C90.4409 54.72 89.5289 55.116 88.9529 55.692C88.4009 56.268 88.1249 56.976 88.1249 57.816C88.1249 58.608 88.4369 59.268 89.0609 59.796C89.7089 60.324 90.5129 60.588 91.4729 60.588C92.6969 60.588 93.7529 60.336 94.6409 59.832C95.5529 59.304 96.2609 58.596 96.7649 57.708C97.2929 56.82 97.5569 55.836 97.5569 54.756V49.824C97.5569 48.768 97.1609 47.916 96.3689 47.268C95.6009 46.596 94.5809 46.26 93.3089 46.26C92.2049 46.26 91.2209 46.548 90.3569 47.124C89.5169 47.676 88.8929 48.42 88.4849 49.356L85.5689 47.844C85.9289 46.956 86.5049 46.164 87.2969 45.468C88.0889 44.748 89.0129 44.184 90.0689 43.776C91.1249 43.368 92.2289 43.164 93.3809 43.164C94.8689 43.164 96.1769 43.452 97.3049 44.028C98.4329 44.58 99.3089 45.36 99.9329 46.368C100.581 47.352 100.905 48.504 100.905 49.824V63H97.6289V59.328L98.2409 59.544C97.8329 60.312 97.2809 60.984 96.5849 61.56C95.8889 62.136 95.0729 62.592 94.1369 62.928C93.2009 63.264 92.1809 63.432 91.0769 63.432ZM113.628 63.216C111.732 63.216 110.268 62.676 109.236 61.596C108.228 60.516 107.724 58.992 107.724 57.024V46.8H104.196V43.596H104.916C105.78 43.596 106.464 43.332 106.968 42.804C107.472 42.276 107.724 41.58 107.724 40.716V39.132H111.072V43.596H115.428V46.8H111.072V56.916C111.072 57.564 111.168 58.128 111.36 58.608C111.576 59.088 111.924 59.472 112.404 59.76C112.884 60.024 113.52 60.156 114.312 60.156C114.48 60.156 114.684 60.144 114.924 60.12C115.188 60.096 115.428 60.072 115.644 60.048V63C115.332 63.072 114.984 63.12 114.6 63.144C114.216 63.192 113.892 63.216 113.628 63.216ZM120.018 63V35.748H123.366V47.376L122.754 47.052C123.234 45.828 124.002 44.88 125.058 44.208C126.138 43.512 127.398 43.164 128.838 43.164C130.23 43.164 131.466 43.476 132.546 44.1C133.65 44.724 134.514 45.588 135.138 46.692C135.786 47.796 136.11 49.044 136.11 50.436V63H132.726V51.516C132.726 50.436 132.522 49.524 132.114 48.78C131.73 48.036 131.19 47.46 130.494 47.052C129.798 46.62 128.994 46.404 128.082 46.404C127.194 46.404 126.39 46.62 125.67 47.052C124.95 47.46 124.386 48.048 123.978 48.816C123.57 49.56 123.366 50.46 123.366 51.516V63H120.018ZM149.829 63.432C147.957 63.432 146.289 62.988 144.825 62.1C143.361 61.212 142.209 60 141.369 58.464C140.529 56.904 140.109 55.164 140.109 53.244C140.109 51.3 140.517 49.572 141.333 48.06C142.173 46.548 143.301 45.36 144.717 44.496C146.157 43.608 147.765 43.164 149.541 43.164C150.981 43.164 152.253 43.428 153.357 43.956C154.485 44.46 155.433 45.156 156.201 46.044C156.993 46.908 157.593 47.904 158.001 49.032C158.433 50.136 158.649 51.288 158.649 52.488C158.649 52.752 158.625 53.052 158.577 53.388C158.553 53.7 158.517 54 158.469 54.288H142.557V51.408H156.525L154.941 52.704C155.157 51.456 155.037 50.34 154.581 49.356C154.125 48.372 153.453 47.592 152.565 47.016C151.677 46.44 150.669 46.152 149.541 46.152C148.413 46.152 147.381 46.44 146.445 47.016C145.509 47.592 144.777 48.42 144.249 49.5C143.745 50.556 143.541 51.816 143.637 53.28C143.541 54.696 143.757 55.944 144.285 57.024C144.837 58.08 145.605 58.908 146.589 59.508C147.597 60.084 148.689 60.372 149.865 60.372C151.161 60.372 152.253 60.072 153.141 59.472C154.029 58.872 154.749 58.104 155.301 57.168L158.109 58.608C157.725 59.496 157.125 60.312 156.309 61.056C155.517 61.776 154.569 62.352 153.465 62.784C152.385 63.216 151.173 63.432 149.829 63.432ZM167.478 63L160.818 43.596H164.526L169.818 59.832L168.522 59.796L173.706 43.596H176.874L182.058 59.796L180.762 59.832L186.09 43.596H189.762L183.102 63H179.898L174.786 46.8H175.794L170.682 63H167.478ZM211.759 63.432C209.863 63.432 208.111 63.096 206.503 62.424C204.895 61.728 203.503 60.756 202.327 59.508C201.151 58.26 200.227 56.796 199.555 55.116C198.907 53.436 198.583 51.6 198.583 49.608C198.583 47.592 198.907 45.744 199.555 44.064C200.203 42.384 201.115 40.92 202.291 39.672C203.467 38.424 204.859 37.464 206.467 36.792C208.075 36.096 209.827 35.748 211.723 35.748C213.571 35.748 215.227 36.072 216.691 36.72C218.179 37.368 219.427 38.208 220.435 39.24C221.467 40.272 222.199 41.376 222.631 42.552L219.463 44.1C218.839 42.54 217.867 41.304 216.547 40.392C215.227 39.48 213.619 39.024 211.723 39.024C209.851 39.024 208.183 39.468 206.719 40.356C205.279 41.244 204.151 42.48 203.335 44.064C202.519 45.648 202.111 47.496 202.111 49.608C202.111 51.696 202.519 53.532 203.335 55.116C204.175 56.7 205.315 57.936 206.755 58.824C208.219 59.712 209.887 60.156 211.759 60.156C213.391 60.156 214.867 59.808 216.187 59.112C217.507 58.416 218.551 57.456 219.319 56.232C220.087 55.008 220.471 53.592 220.471 51.984V50.328L222.091 51.84H211.723V48.78H224.035V51.156C224.035 53.028 223.711 54.72 223.063 56.232C222.415 57.744 221.527 59.04 220.399 60.12C219.271 61.176 217.963 61.992 216.475 62.568C214.987 63.144 213.415 63.432 211.759 63.432ZM237.621 63.432C235.749 63.432 234.057 63 232.545 62.136C231.033 61.248 229.833 60.036 228.945 58.5C228.057 56.964 227.613 55.224 227.613 53.28C227.613 51.336 228.045 49.608 228.909 48.096C229.797 46.584 230.997 45.384 232.509 44.496C234.021 43.608 235.725 43.164 237.621 43.164C239.493 43.164 241.185 43.608 242.697 44.496C244.209 45.36 245.397 46.548 246.261 48.06C247.149 49.572 247.593 51.312 247.593 53.28C247.593 55.248 247.137 57 246.225 58.536C245.313 60.048 244.101 61.248 242.589 62.136C241.101 63 239.445 63.432 237.621 63.432ZM237.621 60.192C238.821 60.192 239.901 59.892 240.861 59.292C241.845 58.692 242.613 57.864 243.165 56.808C243.741 55.752 244.029 54.576 244.029 53.28C244.029 51.96 243.741 50.796 243.165 49.788C242.613 48.756 241.845 47.94 240.861 47.34C239.901 46.716 238.821 46.404 237.621 46.404C236.397 46.404 235.293 46.716 234.309 47.34C233.349 47.94 232.581 48.756 232.005 49.788C231.429 50.796 231.141 51.96 231.141 53.28C231.141 54.576 231.429 55.752 232.005 56.808C232.581 57.864 233.349 58.692 234.309 59.292C235.293 59.892 236.397 60.192 237.621 60.192ZM251.959 63V43.596H255.235V47.16L254.875 46.656C255.331 45.552 256.027 44.736 256.963 44.208C257.899 43.656 259.039 43.38 260.383 43.38H261.571V46.548H259.879C258.511 46.548 257.407 46.98 256.567 47.844C255.727 48.684 255.307 49.884 255.307 51.444V63H251.959ZM273.473 63.432C271.601 63.432 269.933 62.988 268.469 62.1C267.005 61.212 265.853 60 265.013 58.464C264.173 56.904 263.753 55.164 263.753 53.244C263.753 51.3 264.161 49.572 264.977 48.06C265.817 46.548 266.945 45.36 268.361 44.496C269.801 43.608 271.409 43.164 273.185 43.164C274.625 43.164 275.897 43.428 277.001 43.956C278.129 44.46 279.077 45.156 279.845 46.044C280.637 46.908 281.237 47.904 281.645 49.032C282.077 50.136 282.293 51.288 282.293 52.488C282.293 52.752 282.269 53.052 282.221 53.388C282.197 53.7 282.161 54 282.113 54.288H266.201V51.408H280.169L278.585 52.704C278.801 51.456 278.681 50.34 278.225 49.356C277.769 48.372 277.097 47.592 276.209 47.016C275.321 46.44 274.313 46.152 273.185 46.152C272.057 46.152 271.025 46.44 270.089 47.016C269.153 47.592 268.421 48.42 267.893 49.5C267.389 50.556 267.185 51.816 267.281 53.28C267.185 54.696 267.401 55.944 267.929 57.024C268.481 58.08 269.249 58.908 270.233 59.508C271.241 60.084 272.333 60.372 273.509 60.372C274.805 60.372 275.897 60.072 276.785 59.472C277.673 58.872 278.393 58.104 278.945 57.168L281.753 58.608C281.369 59.496 280.769 60.312 279.953 61.056C279.161 61.776 278.213 62.352 277.109 62.784C276.029 63.216 274.817 63.432 273.473 63.432Z" fill="white" fill-opacity="0.9"/>
<path d="M54.988 63V36.18H58.228L68.272 50.472H66.616L76.588 36.18H79.828V63H76.264V40.644L77.524 41.04L67.552 55.08H67.264L57.4 41.04L58.516 40.644V63H54.988ZM91.0769 63.432C89.8049 63.432 88.6769 63.204 87.6929 62.748C86.7329 62.268 85.9769 61.62 85.4249 60.804C84.8729 59.964 84.5969 59.004 84.5969 57.924C84.5969 56.892 84.8129 55.968 85.2449 55.152C85.7009 54.312 86.3969 53.604 87.3329 53.028C88.2929 52.452 89.4929 52.044 90.9329 51.804L98.1329 50.616V53.424L91.6889 54.504C90.4409 54.72 89.5289 55.116 88.9529 55.692C88.4009 56.268 88.1249 56.976 88.1249 57.816C88.1249 58.608 88.4369 59.268 89.0609 59.796C89.7089 60.324 90.5129 60.588 91.4729 60.588C92.6969 60.588 93.7529 60.336 94.6409 59.832C95.5529 59.304 96.2609 58.596 96.7649 57.708C97.2929 56.82 97.5569 55.836 97.5569 54.756V49.824C97.5569 48.768 97.1609 47.916 96.3689 47.268C95.6009 46.596 94.5809 46.26 93.3089 46.26C92.2049 46.26 91.2209 46.548 90.3569 47.124C89.5169 47.676 88.8929 48.42 88.4849 49.356L85.5689 47.844C85.9289 46.956 86.5049 46.164 87.2969 45.468C88.0889 44.748 89.0129 44.184 90.0689 43.776C91.1249 43.368 92.2289 43.164 93.3809 43.164C94.8689 43.164 96.1769 43.452 97.3049 44.028C98.4329 44.58 99.3089 45.36 99.9329 46.368C100.581 47.352 100.905 48.504 100.905 49.824V63H97.6289V59.328L98.2409 59.544C97.8329 60.312 97.2809 60.984 96.5849 61.56C95.8889 62.136 95.0729 62.592 94.1369 62.928C93.2009 63.264 92.1809 63.432 91.0769 63.432ZM113.628 63.216C111.732 63.216 110.268 62.676 109.236 61.596C108.228 60.516 107.724 58.992 107.724 57.024V46.8H104.196V43.596H104.916C105.78 43.596 106.464 43.332 106.968 42.804C107.472 42.276 107.724 41.58 107.724 40.716V39.132H111.072V43.596H115.428V46.8H111.072V56.916C111.072 57.564 111.168 58.128 111.36 58.608C111.576 59.088 111.924 59.472 112.404 59.76C112.884 60.024 113.52 60.156 114.312 60.156C114.48 60.156 114.684 60.144 114.924 60.12C115.188 60.096 115.428 60.072 115.644 60.048V63C115.332 63.072 114.984 63.12 114.6 63.144C114.216 63.192 113.892 63.216 113.628 63.216ZM120.018 63V35.748H123.366V47.376L122.754 47.052C123.234 45.828 124.002 44.88 125.058 44.208C126.138 43.512 127.398 43.164 128.838 43.164C130.23 43.164 131.466 43.476 132.546 44.1C133.65 44.724 134.514 45.588 135.138 46.692C135.786 47.796 136.11 49.044 136.11 50.436V63H132.726V51.516C132.726 50.436 132.522 49.524 132.114 48.78C131.73 48.036 131.19 47.46 130.494 47.052C129.798 46.62 128.994 46.404 128.082 46.404C127.194 46.404 126.39 46.62 125.67 47.052C124.95 47.46 124.386 48.048 123.978 48.816C123.57 49.56 123.366 50.46 123.366 51.516V63H120.018ZM149.829 63.432C147.957 63.432 146.289 62.988 144.825 62.1C143.361 61.212 142.209 60 141.369 58.464C140.529 56.904 140.109 55.164 140.109 53.244C140.109 51.3 140.517 49.572 141.333 48.06C142.173 46.548 143.301 45.36 144.717 44.496C146.157 43.608 147.765 43.164 149.541 43.164C150.981 43.164 152.253 43.428 153.357 43.956C154.485 44.46 155.433 45.156 156.201 46.044C156.993 46.908 157.593 47.904 158.001 49.032C158.433 50.136 158.649 51.288 158.649 52.488C158.649 52.752 158.625 53.052 158.577 53.388C158.553 53.7 158.517 54 158.469 54.288H142.557V51.408H156.525L154.941 52.704C155.157 51.456 155.037 50.34 154.581 49.356C154.125 48.372 153.453 47.592 152.565 47.016C151.677 46.44 150.669 46.152 149.541 46.152C148.413 46.152 147.381 46.44 146.445 47.016C145.509 47.592 144.777 48.42 144.249 49.5C143.745 50.556 143.541 51.816 143.637 53.28C143.541 54.696 143.757 55.944 144.285 57.024C144.837 58.08 145.605 58.908 146.589 59.508C147.597 60.084 148.689 60.372 149.865 60.372C151.161 60.372 152.253 60.072 153.141 59.472C154.029 58.872 154.749 58.104 155.301 57.168L158.109 58.608C157.725 59.496 157.125 60.312 156.309 61.056C155.517 61.776 154.569 62.352 153.465 62.784C152.385 63.216 151.173 63.432 149.829 63.432ZM167.478 63L160.818 43.596H164.526L169.818 59.832L168.522 59.796L173.706 43.596H176.874L182.058 59.796L180.762 59.832L186.09 43.596H189.762L183.102 63H179.898L174.786 46.8H175.794L170.682 63H167.478ZM211.759 63.432C209.863 63.432 208.111 63.096 206.503 62.424C204.895 61.728 203.503 60.756 202.327 59.508C201.151 58.26 200.227 56.796 199.555 55.116C198.907 53.436 198.583 51.6 198.583 49.608C198.583 47.592 198.907 45.744 199.555 44.064C200.203 42.384 201.115 40.92 202.291 39.672C203.467 38.424 204.859 37.464 206.467 36.792C208.075 36.096 209.827 35.748 211.723 35.748C213.571 35.748 215.227 36.072 216.691 36.72C218.179 37.368 219.427 38.208 220.435 39.24C221.467 40.272 222.199 41.376 222.631 42.552L219.463 44.1C218.839 42.54 217.867 41.304 216.547 40.392C215.227 39.48 213.619 39.024 211.723 39.024C209.851 39.024 208.183 39.468 206.719 40.356C205.279 41.244 204.151 42.48 203.335 44.064C202.519 45.648 202.111 47.496 202.111 49.608C202.111 51.696 202.519 53.532 203.335 55.116C204.175 56.7 205.315 57.936 206.755 58.824C208.219 59.712 209.887 60.156 211.759 60.156C213.391 60.156 214.867 59.808 216.187 59.112C217.507 58.416 218.551 57.456 219.319 56.232C220.087 55.008 220.471 53.592 220.471 51.984V50.328L222.091 51.84H211.723V48.78H224.035V51.156C224.035 53.028 223.711 54.72 223.063 56.232C222.415 57.744 221.527 59.04 220.399 60.12C219.271 61.176 217.963 61.992 216.475 62.568C214.987 63.144 213.415 63.432 211.759 63.432ZM237.621 63.432C235.749 63.432 234.057 63 232.545 62.136C231.033 61.248 229.833 60.036 228.945 58.5C228.057 56.964 227.613 55.224 227.613 53.28C227.613 51.336 228.045 49.608 228.909 48.096C229.797 46.584 230.997 45.384 232.509 44.496C234.021 43.608 235.725 43.164 237.621 43.164C239.493 43.164 241.185 43.608 242.697 44.496C244.209 45.36 245.397 46.548 246.261 48.06C247.149 49.572 247.593 51.312 247.593 53.28C247.593 55.248 247.137 57 246.225 58.536C245.313 60.048 244.101 61.248 242.589 62.136C241.101 63 239.445 63.432 237.621 63.432ZM237.621 60.192C238.821 60.192 239.901 59.892 240.861 59.292C241.845 58.692 242.613 57.864 243.165 56.808C243.741 55.752 244.029 54.576 244.029 53.28C244.029 51.96 243.741 50.796 243.165 49.788C242.613 48.756 241.845 47.94 240.861 47.34C239.901 46.716 238.821 46.404 237.621 46.404C236.397 46.404 235.293 46.716 234.309 47.34C233.349 47.94 232.581 48.756 232.005 49.788C231.429 50.796 231.141 51.96 231.141 53.28C231.141 54.576 231.429 55.752 232.005 56.808C232.581 57.864 233.349 58.692 234.309 59.292C235.293 59.892 236.397 60.192 237.621 60.192ZM251.959 63V43.596H255.235V47.16L254.875 46.656C255.331 45.552 256.027 44.736 256.963 44.208C257.899 43.656 259.039 43.38 260.383 43.38H261.571V46.548H259.879C258.511 46.548 257.407 46.98 256.567 47.844C255.727 48.684 255.307 49.884 255.307 51.444V63H251.959ZM273.473 63.432C271.601 63.432 269.933 62.988 268.469 62.1C267.005 61.212 265.853 60 265.013 58.464C264.173 56.904 263.753 55.164 263.753 53.244C263.753 51.3 264.161 49.572 264.977 48.06C265.817 46.548 266.945 45.36 268.361 44.496C269.801 43.608 271.409 43.164 273.185 43.164C274.625 43.164 275.897 43.428 277.001 43.956C278.129 44.46 279.077 45.156 279.845 46.044C280.637 46.908 281.237 47.904 281.645 49.032C282.077 50.136 282.293 51.288 282.293 52.488C282.293 52.752 282.269 53.052 282.221 53.388C282.197 53.7 282.161 54 282.113 54.288H266.201V51.408H280.169L278.585 52.704C278.801 51.456 278.681 50.34 278.225 49.356C277.769 48.372 277.097 47.592 276.209 47.016C275.321 46.44 274.313 46.152 273.185 46.152C272.057 46.152 271.025 46.44 270.089 47.016C269.153 47.592 268.421 48.42 267.893 49.5C267.389 50.556 267.185 51.816 267.281 53.28C267.185 54.696 267.401 55.944 267.929 57.024C268.481 58.08 269.249 58.908 270.233 59.508C271.241 60.084 272.333 60.372 273.509 60.372C274.805 60.372 275.897 60.072 276.785 59.472C277.673 58.872 278.393 58.104 278.945 57.168L281.753 58.608C281.369 59.496 280.769 60.312 279.953 61.056C279.161 61.776 278.213 62.352 277.109 62.784C276.029 63.216 274.817 63.432 273.473 63.432Z" fill="url(#paint2_radial_302_2)" fill-opacity="0.7"/>
</g>
</g>
<defs>
<filter id="filter0_i_302_2" x="-3" y="-4" width="340" height="101" filterUnits="userSpaceOnUse" color-interpolation-filters="sRGB">
<feFlood flood-opacity="0" result="BackgroundImageFix"/>
<feBlend mode="normal" in="SourceGraphic" in2="BackgroundImageFix" result="shape"/>
<feColorMatrix in="SourceAlpha" type="matrix" values="0 0 0 0 0 0 0 0 0 0 0 0 0 0 0 0 0 0 127 0" result="hardAlpha"/>
<feOffset dx="-3" dy="-4"/>
<feGaussianBlur stdDeviation="3.5"/>
<feComposite in2="hardAlpha" operator="arithmetic" k2="-1" k3="1"/>
<feColorMatrix type="matrix" values="0 0 0 0 1 0 0 0 0 1 0 0 0 0 1 0 0 0 0.15 0"/>
<feBlend mode="normal" in2="shape" result="effect1_innerShadow_302_2"/>
</filter>
<filter id="filter1_d_302_2" x="54.988" y="35.748" width="229.305" height="29.684" filterUnits="userSpaceOnUse" color-interpolation-filters="sRGB">
<feFlood flood-opacity="0" result="BackgroundImageFix"/>
<feColorMatrix in="SourceAlpha" type="matrix" values="0 0 0 0 0 0 0 0 0 0 0 0 0 0 0 0 0 0 127 0" result="hardAlpha"/>
<feOffset dx="1" dy="1"/>
<feGaussianBlur stdDeviation="0.5"/>
<feColorMatrix type="matrix" values="0 0 0 0 0 0 0 0 0 0 0 0 0 0 0 0 0 0 0.25 0"/>
<feBlend mode="normal" in2="BackgroundImageFix" result="effect1_dropShadow_302_2"/>
<feBlend mode="normal" in="SourceGraphic" in2="effect1_dropShadow_302_2" result="shape"/>
</filter>
<radialGradient id="paint0_radial_302_2" cx="0" cy="0" r="1" gradientTransform="matrix(177.861 63.3194 -219.986 51.1945 88.9305 20.2083)" gradientUnits="userSpaceOnUse">
<stop stop-color="white" stop-opacity="0.59"/>
<stop offset="0.697917" stop-color="white" stop-opacity="0"/>
<stop offset="1" stop-color="white" stop-opacity="0"/>
</radialGradient>
<radialGradient id="paint1_radial_302_2" cx="0" cy="0" r="1" gradientTransform="matrix(-18.4658 -82.8542 -310.331 53.0133 290.836 84.875)" gradientUnits="userSpaceOnUse">
<stop stop-opacity="0.23"/>
<stop offset="0.861815" stop-opacity="0"/>
</radialGradient>
<radialGradient id="paint2_radial_302_2" cx="0" cy="0" r="1" gradientTransform="matrix(99.3115 28.4016 -147.057 19.1803 126.484 34.8525)" gradientUnits="userSpaceOnUse">
<stop stop-color="white"/>
<stop offset="0.697917" stop-color="white" stop-opacity="0"/>
<stop offset="1" stop-color="white" stop-opacity="0"/>
</radialGradient>
</defs>
</svg>
