<svg width="97" height="88" viewBox="0 0 97 88" fill="none" xmlns="http://www.w3.org/2000/svg">
<path d="M0 23C0 10.2975 10.2975 0 23 0C41.7307 5.24201 52.0051 4.9214 70 0C82.7025 0 93 10.2975 93 23C90.3431 40.2497 90.598 49.3691 93 65C93 77.7025 82.7025 88 70 88C52.0056 83.8841 41.729 83.6021 23 88C10.2975 88 0 77.7025 0 65C1.71153 50.8483 2.0134 42.0503 0 23Z" fill="#00BFFF"/>
<path d="M18 78.8182C16.3431 78.8182 15 77.475 15 75.8182V12C15 10.3432 16.3431 9 18 9H30.9545C32.6114 9 33.9545 10.3431 33.9545 12V36.2727H59.0455V12C59.0455 10.3431 60.3886 9 62.0455 9H75C76.6569 9 78 10.3431 78 12V75.8182C78 77.475 76.6569 78.8182 75 78.8182H62.0455C60.3886 78.8182 59.0455 77.475 59.0455 75.8182V51.5455H33.9545V75.8182C33.9545 77.475 32.6114 78.8182 30.9545 78.8182H18Z" fill="white"/>
<path d="M93.0005 65.0004L92.5 61L82.2616 62.8411L79.7911 66.4469L83.8117 68.4374L93.0005 65.0004Z" fill="white"/>
<rect x="93.0752" y="60.5068" width="2.69441" height="4" rx="1" transform="rotate(-9.95043 93.0752 60.5068)" fill="#00BFFF"/>
</svg>
