<svg width="384" height="88" viewBox="0 0 384 88" fill="none" xmlns="http://www.w3.org/2000/svg">
<path d="M128.955 54.7381V25.2835H147.773V77.6472H129.909V67.6926H129.364C128.227 71.0335 126.239 73.6472 123.398 75.5335C120.557 77.3972 117.182 78.329 113.273 78.329C109.614 78.329 106.409 77.4881 103.659 75.8063C100.932 74.1244 98.8068 71.8063 97.2841 68.8517C95.7841 65.8972 99.5 60.8404 95 58.6926C90.5 56.5449 95 25.2835 95 25.2835H113.818V54.7381C113.841 57.329 114.5 59.3631 115.795 60.8404C117.114 62.3176 118.955 63.0563 121.318 63.0563C122.886 63.0563 124.239 62.7267 125.375 62.0676C126.534 61.3858 127.42 60.4313 128.034 59.204C128.67 57.954 128.977 56.4654 128.955 54.7381Z" fill="white"/>
<path d="M157.889 77.6472V67.2835L180.798 39.8745V39.6017H158.707V25.2835H203.026V36.7381L182.162 63.0563V63.329H203.844V77.6472H157.889Z" fill="white"/>
<path d="M208.14 77.6472L207.129 67.333L227.253 37.8189L227.227 37.5474L205.241 39.7035L203.844 25.4537L247.95 21.1282L249.068 32.5281L230.873 60.7569L230.9 61.0283L252.478 58.9122L253.875 73.162L208.14 77.6472Z" fill="white"/>
<path d="M283.793 9.08988L276.039 78.4762L257.338 76.3863L265.091 7L283.793 9.08988Z" fill="white"/>
<path d="M314.653 78.6017C309.063 78.6017 304.244 77.5335 300.199 75.3972C296.176 73.2381 293.074 70.1472 290.892 66.1245C288.733 62.079 287.653 57.2381 287.653 51.6017C287.653 46.1926 288.744 41.4654 290.926 37.4199C293.108 33.3745 296.188 30.2267 300.165 27.9767C304.142 25.7267 308.835 24.6017 314.244 24.6017C318.199 24.6017 321.778 25.2154 324.983 26.4426C328.188 27.6699 330.926 29.454 333.199 31.7949C335.472 34.1131 337.222 36.9313 338.449 40.2495C339.676 43.5676 340.29 47.3063 340.29 51.4654V55.829H293.517V45.4654H322.972C322.949 43.9654 322.563 42.6472 321.813 41.5108C321.085 40.3517 320.097 39.454 318.847 38.8176C317.619 38.1585 316.222 37.829 314.653 37.829C313.131 37.829 311.733 38.1585 310.46 38.8176C309.188 39.454 308.165 40.3404 307.392 41.4767C306.642 42.6131 306.244 43.9426 306.199 45.4654V56.6472C306.199 58.329 306.551 59.829 307.256 61.1472C307.96 62.4654 308.972 63.4995 310.29 64.2495C311.608 64.9995 313.199 65.3745 315.063 65.3745C316.358 65.3745 317.54 65.1926 318.608 64.829C319.699 64.4654 320.631 63.9426 321.403 63.2608C322.176 62.5563 322.744 61.7154 323.108 60.7381H340.29C339.699 64.3745 338.301 67.5335 336.097 70.2154C333.892 72.8744 330.972 74.9426 327.335 76.4199C323.722 77.8745 319.494 78.6017 314.653 78.6017Z" fill="white"/>
<path d="M347.969 77.6472V25.2835H366.242V35.2381H366.787C367.742 31.5563 369.253 28.8631 371.321 27.1585C373.412 25.454 375.855 24.6017 378.651 24.6017C379.469 24.6017 380.276 24.6699 381.071 24.8063C381.889 24.9199 382.673 25.0904 383.423 25.3176V41.3745C382.492 41.0563 381.344 40.8176 379.98 40.6585C378.616 40.4994 377.446 40.4199 376.469 40.4199C374.628 40.4199 372.969 40.8404 371.492 41.6813C370.037 42.4994 368.889 43.6585 368.048 45.1585C367.207 46.6358 366.787 48.3745 366.787 50.3745V77.6472H347.969Z" fill="white"/>
<path d="M0 23C0 10.2975 10.2975 0 23 0C41.7307 5.24201 52.0051 4.9214 70 0C82.7025 0 93 10.2975 93 23C90.3431 40.2497 90.598 49.3691 93 65C93 77.7025 82.7025 88 70 88C52.0056 83.8841 41.729 83.6021 23 88C10.2975 88 0 77.7025 0 65C1.71153 50.8483 2.0134 42.0503 0 23Z" fill="white"/>
<path d="M18 78.8182C16.3431 78.8182 15 77.475 15 75.8182V12C15 10.3432 16.3431 9 18 9H30.9545C32.6114 9 33.9545 10.3431 33.9545 12V36.2727H59.0455V12C59.0455 10.3431 60.3886 9 62.0455 9H75C76.6569 9 78 10.3431 78 12V75.8182C78 77.475 76.6569 78.8182 75 78.8182H62.0455C60.3886 78.8182 59.0455 77.475 59.0455 75.8182V51.5455H33.9545V75.8182C33.9545 77.475 32.6114 78.8182 30.9545 78.8182H18Z" fill="#00BFFF"/>
<path d="M93.0005 65.0004L92.5 61L82.2616 62.8411L79.7911 66.4469L83.8117 68.4374L93.0005 65.0004Z" fill="#00BFFF"/>
<rect x="93.0752" y="60.5068" width="2.69441" height="4" rx="1" transform="rotate(-9.95043 93.0752 60.5068)" fill="#00BFFF"/>
</svg>
